<?xml version="1.0" standalone="no"?>
<!DOCTYPE svg PUBLIC "-//W3C//DTD SVG 20010904//EN"
 "http://www.w3.org/TR/2001/REC-SVG-20010904/DTD/svg10.dtd">
<svg version="1.0" xmlns="http://www.w3.org/2000/svg"
 width="300.000000pt" height="300.000000pt" viewBox="0 0 300.000000 300.000000"
 preserveAspectRatio="xMidYMid meet">

<g transform="translate(0.000000,300.000000) scale(0.100000,-0.100000)"
fill="#e0218a" stroke="#ffff">
<path d="M0 1500 l0 -1500 1500 0 1500 0 0 1500 0 1500 -1500 0 -1500 0 0
-1500z m340 822 c19 -16 26 -48 64 -319 23 -166 44 -305 47 -308 3 -3 21 3 40
12 94 48 229 1 279 -97 18 -35 50 -218 50 -285 0 -59 -73 -86 -99 -37 -5 9
-16 71 -26 137 -18 129 -24 146 -57 169 -53 37 -149 2 -160 -58 -3 -14 3 -80
12 -148 18 -129 16 -149 -21 -168 -26 -14 -66 9 -74 43 -5 22 -145 1013 -145
1029 0 13 39 48 54 48 8 0 24 -8 36 -18z m2360 -180 c32 -26 46 -176 31 -334
-47 -470 -323 -864 -746 -1064 -298 -141 -662 -161 -975 -54 -77 27 -228 101
-287 141 -29 20 -54 29 -82 29 -106 0 -147 133 -59 194 55 39 149 2 163 -64
15 -70 275 -193 485 -231 109 -20 326 -17 430 5 244 52 443 160 614 332 89 90
157 185 217 309 85 170 86 145 -26 343 -104 184 -111 211 -60 234 38 17 63 -7
129 -126 46 -82 62 -103 69 -91 10 19 12 254 2 307 -6 31 -3 41 19 62 30 31
46 32 76 8z m-421 -211 c49 -26 105 -89 122 -137 51 -153 -50 -312 -210 -331
-27 -3 -64 0 -85 7 -21 6 -39 10 -41 8 -1 -1 6 -59 16 -128 25 -169 25 -186
-6 -206 -28 -18 -60 -12 -74 15 -6 10 -33 181 -61 380 -50 346 -51 363 -34
382 22 25 69 25 87 -1 13 -18 15 -18 36 -3 65 45 176 51 250 14z m-513 -86
c33 -21 60 -48 82 -85 28 -47 32 -63 32 -122 0 -112 -52 -190 -153 -233 -41
-17 -133 -20 -171 -5 -32 12 -32 17 -6 -159 18 -121 18 -137 5 -158 -18 -27
-66 -31 -85 -9 -9 12 -49 235 -50 282 0 6 -19 11 -44 11 -25 0 -56 7 -71 17
-25 17 -27 16 -58 -10 -83 -70 -185 -83 -278 -36 -159 80 -185 283 -50 405 22
20 57 41 78 47 40 12 145 10 175 -4 12 -6 17 -2 20 15 6 44 77 58 97 20 5 -9
19 -81 30 -159 23 -155 30 -177 61 -185 25 -6 25 -7 0 158 -24 160 -25 193 -3
217 23 25 50 23 78 -7 16 -18 26 -22 30 -14 4 6 26 20 49 30 64 30 168 23 232
-16z"/>
<path d="M2124 1834 c-100 -34 -124 -166 -41 -228 65 -48 134 -40 187 21 30
33 32 41 28 90 -4 44 -11 60 -35 84 -38 39 -88 51 -139 33z"/>
<path d="M1569 1747 c-89 -59 -86 -172 4 -227 86 -53 197 12 197 115 0 51 -28
97 -73 118 -48 23 -88 21 -128 -6z"/>
<path d="M1013 1670 c-45 -27 -66 -64 -66 -115 0 -97 95 -159 186 -122 48 20
77 69 77 128 0 101 -110 162 -197 109z"/>
</g>
</svg>
